<svg width="19" height="19" viewBox="0 0 19 19" fill="none" xmlns="http://www.w3.org/2000/svg">
<rect x="0.5" y="0.5" width="2.16667" height="2.16667" stroke="#363636"/>
<rect x="0.5" y="5.77734" width="2.16667" height="2.16667" stroke="#363636"/>
<rect x="0.5" y="11.0547" width="2.16667" height="2.16667" stroke="#363636"/>
<rect x="0.5" y="16.334" width="2.16667" height="2.16667" stroke="#363636"/>
<rect x="5.77783" y="0.5" width="2.16667" height="2.16667" stroke="#363636"/>
<rect x="5.77783" y="5.77734" width="2.16667" height="2.16667" stroke="#363636"/>
<rect x="5.77783" y="11.0547" width="2.16667" height="2.16667" stroke="#363636"/>
<rect x="5.77783" y="16.334" width="2.16667" height="2.16667" stroke="#363636"/>
<rect x="11.0555" y="0.5" width="2.16667" height="2.16667" stroke="#363636"/>
<rect x="16.3334" y="0.5" width="2.16667" height="2.16667" stroke="#363636"/>
<rect x="11.0555" y="5.77734" width="2.16667" height="2.16667" stroke="#363636"/>
<rect x="16.3334" y="5.77734" width="2.16667" height="2.16667" stroke="#363636"/>
<rect x="11.0555" y="11.0547" width="2.16667" height="2.16667" stroke="#363636"/>
<rect x="11.0555" y="16.334" width="2.16667" height="2.16667" stroke="#363636"/>
<rect x="16.3334" y="11.0547" width="2.16667" height="2.16667" stroke="#363636"/>
<rect x="16.3334" y="16.334" width="2.16667" height="2.16667" stroke="#363636"/>
</svg>
