<svg xmlns="http://www.w3.org/2000/svg" width="124" height="55" viewBox="0 0 124 55" fill="none"><path d="M17.028 20.072L12.816 20.18C10.68 20.18 8.532 20.144 6.372 20.072L5.76 21.584C4.896 23.72 4.464 25.508 4.464 26.948C4.464 28.124 5.136 28.712 6.48 28.712C6.576 28.712 6.756 28.7 7.02 28.676C7.284 28.628 7.44 28.604 7.488 28.604C7.656 28.604 7.74 28.664 7.74 28.784C7.74 28.928 7.596 29 7.308 29C7.092 29 6.396 28.988 5.22 28.964C4.068 28.94 3.396 28.928 3.204 28.928C3.084 28.928 2.64 28.94 1.872 28.964C1.104 28.988 0.552 29 0.216 29C0.072 29 0 28.94 0 28.82C0 28.724 0.072 28.676 0.216 28.676H0.36C1.32 28.676 2.184 27.956 2.952 26.516C3.792 25.1 4.584 23.396 5.328 21.404L12.276 4.052C12.3 3.98 12.384 3.944 12.528 3.944H12.888C13.08 3.944 13.2 3.98 13.248 4.052L19.8 19.676C21.024 22.556 21.948 24.608 22.572 25.832C23.196 27.032 23.7 27.812 24.084 28.172C24.492 28.508 25.008 28.676 25.632 28.676H25.92C26.088 28.676 26.172 28.724 26.172 28.82C26.172 28.94 26.1 29 25.956 29C25.572 29 24.9 28.988 23.94 28.964C23.004 28.916 22.464 28.892 22.32 28.892C22.176 28.892 21.504 28.916 20.304 28.964C19.128 28.988 18.348 29 17.964 29C17.796 29 17.7 28.94 17.676 28.82C17.724 28.748 17.784 28.7 17.856 28.676H18.612C19.284 28.676 19.644 28.448 19.692 27.992C19.812 27.152 18.924 24.512 17.028 20.072ZM16.848 19.676L11.484 7.112L6.48 19.748L12.6 19.712H16.848V19.676Z" fill="#040202"></path><path d="M26.1852 22.052V15.428C26.1852 14.396 26.1132 13.676 25.9692 13.268C25.8492 12.86 25.6212 12.632 25.2852 12.584C24.9492 12.536 24.4812 12.584 23.8812 12.728C23.7612 12.752 23.6892 12.716 23.6652 12.62C23.6412 12.5 23.7132 12.428 23.8812 12.404C25.3452 12.14 26.8092 11.6 28.2732 10.784C28.3452 10.736 28.4652 10.748 28.6332 10.82C28.8252 10.892 28.9212 10.964 28.9212 11.036V22.412C28.9212 24.476 29.3172 25.976 30.1092 26.912C30.9012 27.824 31.9212 28.28 33.1692 28.28C34.2732 28.28 35.2332 28.028 36.0492 27.524C36.8892 27.02 37.7532 26.18 38.6412 25.004V15.428C38.6412 14.396 38.5692 13.676 38.4252 13.268C38.3052 12.86 38.0772 12.632 37.7412 12.584C37.4052 12.536 36.9372 12.584 36.3372 12.728C36.2172 12.752 36.1452 12.716 36.1212 12.62C36.0972 12.5 36.1692 12.428 36.3372 12.404C37.7772 12.14 39.2292 11.6 40.6932 10.784C40.7412 10.736 40.8612 10.748 41.0532 10.82C41.2452 10.892 41.3412 10.964 41.3412 11.036V24.716C41.3412 26.54 41.4372 27.656 41.6292 28.064C41.8212 28.472 42.3612 28.676 43.2492 28.676C43.3692 28.676 43.4292 28.736 43.4292 28.856C43.4292 28.952 43.3692 29 43.2492 29C42.3612 29 40.8012 29.12 38.5692 29.36C38.4972 29.36 38.4372 29.36 38.3892 29.36C38.3652 29.36 38.3412 29.336 38.3172 29.288C38.2932 29.24 38.2812 29.204 38.2812 29.18C38.2812 29.156 38.2812 29.108 38.2812 29.036C38.2812 29.012 38.3052 28.844 38.3532 28.532C38.4252 28.196 38.4852 27.752 38.5332 27.2C38.6052 26.624 38.6412 26.036 38.6412 25.436C36.6732 28.052 34.4532 29.36 31.9812 29.36C28.1172 29.36 26.1852 26.924 26.1852 22.052Z" fill="#040202"></path><path d="M51.5866 11.252C52.2106 10.844 52.8946 10.64 53.6386 10.64C54.7186 10.64 55.2586 10.856 55.2586 11.288C55.2586 11.672 55.0906 12.08 54.7546 12.512C54.4426 12.944 54.0106 13.16 53.4586 13.16H52.1266C50.8306 13.16 50.0266 13.352 49.7146 13.736C49.4266 14.096 49.2826 15.056 49.2826 16.616V28.676H51.4786C51.6226 28.676 51.6946 28.736 51.6946 28.856C51.6946 28.952 51.6226 29 51.4786 29C51.4066 29 50.9026 28.988 49.9666 28.964C49.0546 28.94 48.4906 28.928 48.2746 28.928C48.1306 28.928 47.5786 28.94 46.6186 28.964C45.6586 28.988 44.9866 29 44.6026 29C44.4586 29 44.3866 28.952 44.3866 28.856C44.3866 28.736 44.4586 28.676 44.6026 28.676C45.5146 28.676 46.0786 28.472 46.2946 28.064C46.5106 27.656 46.6186 26.54 46.6186 24.716V15.428C46.6186 14.612 46.0666 13.7 44.9626 12.692C44.8666 12.596 44.8666 12.524 44.9626 12.476C46.0186 12.068 46.8466 11.564 47.4466 10.964C47.4946 10.892 47.5666 10.904 47.6626 11C48.5506 11.84 49.0666 12.944 49.2106 14.312C49.5466 13.112 50.3386 12.092 51.5866 11.252Z" fill="#040202"></path><path d="M58.3239 25.04V15.428C58.3239 14.108 58.1799 13.316 57.8919 13.052C57.6039 12.788 56.9799 12.764 56.0199 12.98C55.8759 13.004 55.7799 12.968 55.7319 12.872C55.7079 12.776 55.7679 12.716 55.9119 12.692C57.4239 12.356 58.9239 11.672 60.4119 10.64C60.4839 10.592 60.6039 10.604 60.7719 10.676C60.9639 10.748 61.0599 10.82 61.0599 10.892V25.04C61.0599 26.624 61.1679 27.632 61.3839 28.064C61.6239 28.472 62.2359 28.676 63.2199 28.676C63.3639 28.676 63.4359 28.736 63.4359 28.856C63.4359 28.952 63.3639 29 63.2199 29C62.8359 29 62.1999 28.988 61.3119 28.964C60.4239 28.94 59.9079 28.928 59.7639 28.928C59.6199 28.928 59.0679 28.94 58.1079 28.964C57.1719 28.988 56.5119 29 56.1279 29C55.9839 29 55.9119 28.952 55.9119 28.856C55.9119 28.736 55.9839 28.676 56.1279 28.676C57.1359 28.676 57.7479 28.472 57.9639 28.064C58.2039 27.632 58.3239 26.624 58.3239 25.04Z" fill="#040202"></path><path d="M69.361 29.396C67.969 29.396 66.877 29.012 66.085 28.244C65.293 27.476 64.897 26.516 64.897 25.364C64.897 22.772 67.897 20.312 73.897 17.984L76.885 16.832C76.813 14.624 76.477 13.1 75.877 12.26C75.301 11.396 74.353 10.964 73.033 10.964C72.289 10.964 71.629 11.132 71.053 11.468C70.501 11.804 70.093 12.152 69.829 12.512C69.589 12.848 69.313 13.316 69.001 13.916C68.689 14.492 68.485 14.84 68.389 14.96C68.101 15.392 67.561 15.608 66.769 15.608C65.809 15.608 65.329 15.332 65.329 14.78C65.329 14.18 65.749 13.616 66.589 13.088C67.525 12.488 68.641 11.936 69.937 11.432C71.233 10.904 72.457 10.64 73.609 10.64C75.481 10.64 76.957 11.168 78.037 12.224C79.141 13.28 79.693 14.936 79.693 17.192C79.693 18.08 79.645 19.52 79.549 21.512C79.453 23.504 79.405 24.692 79.405 25.076C79.405 27.116 79.741 28.136 80.413 28.136C80.701 28.136 81.025 27.92 81.385 27.488C81.769 27.056 82.093 26.612 82.357 26.156C82.405 26.06 82.477 26.024 82.573 26.048C82.693 26.048 82.765 26.096 82.789 26.192C82.837 26.264 82.837 26.348 82.789 26.444C82.405 26.972 81.757 27.596 80.845 28.316C79.933 29.012 79.165 29.36 78.541 29.36C77.173 29.36 76.489 28.508 76.489 26.804C76.489 25.844 76.537 24.86 76.633 23.852C76.009 24.908 74.917 26.096 73.357 27.416C71.821 28.736 70.489 29.396 69.361 29.396ZM67.417 24.32C67.417 25.256 67.813 26.072 68.605 26.768C69.397 27.464 70.249 27.812 71.161 27.812C72.073 27.812 73.177 27.2 74.473 25.976C75.769 24.728 76.513 23.744 76.705 23.024C76.849 21.152 76.921 19.424 76.921 17.84V17.084L73.969 18.344C71.305 19.472 69.541 20.42 68.677 21.188C67.837 21.956 67.417 23 67.417 24.32Z" fill="#040202"></path><path d="M100.057 17.948V25.472C100.057 26.936 100.165 27.848 100.381 28.208C100.621 28.544 101.089 28.7 101.785 28.676C101.929 28.676 102.001 28.736 102.001 28.856C102.001 28.952 101.929 29 101.785 29C101.713 29 101.209 28.988 100.273 28.964C99.3612 28.94 98.7972 28.928 98.5812 28.928C98.4372 28.928 97.9812 28.94 97.2132 28.964C96.4692 28.988 95.9052 29 95.5212 29C95.3772 29 95.3052 28.952 95.3052 28.856C95.3052 28.736 95.3772 28.676 95.5212 28.676C96.2892 28.676 96.7932 28.484 97.0332 28.1C97.2732 27.716 97.3932 26.768 97.3932 25.256L97.3572 17.588C97.3332 15.524 96.9132 14.036 96.0972 13.124C95.2812 12.188 94.2492 11.72 93.0012 11.72C91.8972 11.72 90.9252 11.984 90.0852 12.512C89.2692 13.016 88.4292 13.844 87.5652 14.996V28.676H89.4372C89.5812 28.676 89.6532 28.736 89.6532 28.856C89.6532 28.952 89.5812 29 89.4372 29C89.3652 29 88.9452 28.988 88.1772 28.964C87.4092 28.94 86.9172 28.928 86.7012 28.928C86.5572 28.928 86.0412 28.94 85.1532 28.964C84.2652 28.988 83.6292 29 83.2452 29C83.1012 29 83.0292 28.952 83.0292 28.856C83.0292 28.736 83.1012 28.676 83.2452 28.676C84.0132 28.676 84.4692 28.472 84.6132 28.064C84.7812 27.632 84.8652 26.516 84.8652 24.716V15.428C84.8652 14.612 84.3132 13.7 83.2092 12.692C83.1132 12.596 83.1132 12.524 83.2092 12.476C84.4332 11.996 85.3092 11.492 85.8372 10.964C85.8852 10.892 85.9572 10.904 86.0532 11C86.4132 11.36 86.7372 11.876 87.0252 12.548C87.3372 13.196 87.5052 13.868 87.5292 14.564C89.4972 11.948 91.7172 10.64 94.1892 10.64C98.1012 10.64 100.057 13.076 100.057 17.948Z" fill="#040202"></path><path d="M112.712 29.36C110 29.36 107.816 28.556 106.16 26.948C104.504 25.316 103.676 23.24 103.676 20.72C103.676 18.056 104.708 15.716 106.772 13.7C108.86 11.66 111.164 10.64 113.684 10.64C114.908 10.64 115.964 10.82 116.852 11.18C117.764 11.516 118.436 11.948 118.868 12.476C119.3 12.98 119.6 13.496 119.768 14.024C119.936 14.552 119.996 15.044 119.948 15.5C119.852 16.244 119.348 16.616 118.436 16.616H106.124C105.932 17.504 105.836 18.428 105.836 19.388C105.836 21.596 106.676 23.468 108.356 25.004C110.06 26.516 112.124 27.272 114.548 27.272C116.636 27.272 118.4 26.684 119.84 25.508C121.28 24.308 122.528 22.568 123.584 20.288C123.68 20.024 123.776 19.94 123.872 20.036C123.92 20.084 123.908 20.192 123.836 20.36C122.756 22.88 121.256 25.016 119.336 26.768C117.44 28.496 115.232 29.36 112.712 29.36ZM115.052 16.184C115.796 16.184 116.276 16.076 116.492 15.86C116.708 15.596 116.816 15.212 116.816 14.708C116.816 13.916 116.444 13.172 115.7 12.476C114.956 11.78 113.948 11.432 112.676 11.432C111.092 11.432 109.724 11.852 108.572 12.692C107.444 13.532 106.652 14.744 106.196 16.328C107.684 16.328 109.376 16.304 111.272 16.256C113.168 16.208 114.428 16.184 115.052 16.184Z" fill="#040202"></path><path d="M24.808 53.12C24.328 53.12 23.904 53.028 23.536 52.844C23.176 52.652 22.88 52.396 22.648 52.076L23.44 51.344C23.592 51.568 23.78 51.74 24.004 51.86C24.236 51.98 24.492 52.04 24.772 52.04C25.052 52.04 25.3 51.98 25.516 51.86C25.732 51.74 25.9 51.564 26.02 51.332C26.148 51.092 26.212 50.8 26.212 50.456V44.672H27.34V50.396C27.34 50.948 27.228 51.428 27.004 51.836C26.788 52.244 26.488 52.56 26.104 52.784C25.728 53.008 25.296 53.12 24.808 53.12ZM33.2334 53V44.672H34.3614V53H33.2334ZM34.0014 53V51.968H38.7774V53H34.0014ZM34.0014 49.232V48.248H38.3814V49.232H34.0014ZM34.0014 45.704V44.672H38.7174V45.704H34.0014ZM46.4556 53L43.7316 44.672H44.8596L47.0196 51.464H46.6956L48.8196 44.672H49.6356L51.7596 51.464H51.4476L53.6076 44.672H54.7236L52.0116 53H51.2076L49.0716 46.22H49.3836L47.2596 53H46.4556ZM60.1289 53V44.672H61.2569V53H60.1289ZM60.8969 53V51.968H65.6729V53H60.8969ZM60.8969 49.232V48.248H65.2769V49.232H60.8969ZM60.8969 45.704V44.672H65.6129V45.704H60.8969ZM71.227 53V44.672H72.355V53H71.227ZM71.995 53V51.968H76.459V53H71.995ZM82.6241 49.376V48.428H84.8801C85.3681 48.428 85.7441 48.304 86.0081 48.056C86.2721 47.808 86.4041 47.472 86.4041 47.048C86.4041 46.648 86.2721 46.316 86.0081 46.052C85.7521 45.788 85.3801 45.656 84.8921 45.656H82.6241V44.672H84.9281C85.4561 44.672 85.9161 44.776 86.3081 44.984C86.7001 45.184 87.0001 45.46 87.2081 45.812C87.4241 46.164 87.5321 46.568 87.5321 47.024C87.5321 47.496 87.4241 47.908 87.2081 48.26C87.0001 48.612 86.7001 48.888 86.3081 49.088C85.9161 49.28 85.4561 49.376 84.9281 49.376H82.6241ZM81.8681 53V44.672H82.9961V53H81.8681ZM86.6681 53L83.6441 49.268L84.7121 48.896L88.0961 53H86.6681ZM95.3953 49.616L92.1193 44.672H93.4273L96.0673 48.716H95.4793L98.1313 44.672H99.4153L96.1153 49.616H95.3953ZM95.2033 53V48.872H96.3313V53H95.2033Z" fill="#422020"></path><path d="M59.8593 0.496935C59.8452 0.320524 59.8403 0.153663 59.8436 0C59.8545 0.171096 59.8596 0.336688 59.8593 0.496935C60.0019 2.28682 61.0855 5.05984 64.113 5.00617C64.173 5.00205 64.2314 5 64.288 5C64.229 5.0031 64.1706 5.00514 64.113 5.00617C62.5259 5.11509 59.8436 6.67125 59.8436 10C59.8436 7.72727 59.1769 5.18079 55.288 5C56.851 5.07266 59.8516 4.25334 59.8593 0.496935Z" fill="#A54201"></path></svg>